<?xml version="1.0" standalone="no"?>
<!DOCTYPE svg PUBLIC "-//W3C//DTD SVG 20010904//EN"
 "http://www.w3.org/TR/2001/REC-SVG-20010904/DTD/svg10.dtd">
<svg version="1.0" xmlns="http://www.w3.org/2000/svg"
 width="40.000000pt" height="40.000000pt" viewBox="0 0 40.000000 40.000000"
 preserveAspectRatio="xMidYMid meet">

<g transform="translate(0.000000,40.000000) scale(0.100000,-0.100000)"
fill="#000000" stroke="none">
<path d="M139 375 c-32 -17 -72 -77 -93 -138 -55 -163 -9 -231 155 -230 98 0
152 24 157 67 5 39 -5 88 -21 111 -11 14 -17 16 -35 6 -12 -6 -29 -25 -37 -42
l-16 -30 35 7 c34 6 36 5 36 -20 0 -55 -129 -89 -200 -53 -35 18 -36 70 -1 75
13 2 28 -1 34 -7 15 -15 24 -14 31 5 8 20 -16 74 -43 98 -40 36 -24 104 28
126 36 15 68 8 104 -21 31 -23 35 -54 10 -81 -20 -22 -5 -23 41 -4 22 9 37 24
44 45 10 29 9 31 -11 31 -12 0 -42 16 -66 35 -49 39 -104 46 -152 20z"/>
<path d="M182 288 c-7 -7 -12 -19 -12 -27 0 -11 6 -8 20 9 17 23 21 24 42 11
21 -13 22 -13 9 2 -16 20 -42 22 -59 5z"/>
</g>
</svg>
